<?xml version="1.0" standalone="no"?><!DOCTYPE svg PUBLIC "-//W3C//DTD SVG 1.1//EN" "http://www.w3.org/Graphics/SVG/1.1/DTD/svg11.dtd"><svg t="1721495801986" class="icon" viewBox="0 0 1024 1024" version="1.1" xmlns="http://www.w3.org/2000/svg" p-id="3627" xmlns:xlink="http://www.w3.org/1999/xlink" width="200" height="200"><path d="M922.368 257.184l26.592 76.192a20.928 20.928 0 0 1 0.416 12.48l0.032-0.16-1.056 4.128-3.072 11.68-10.976 41.76-33.312 126.816a49695.36 49695.36 0 0 0-47.456 181.728c-22.496 89.056-40.32 119.968-97.952 160.672-50.528 35.68-155.872 107.264-176.128 119.936a214.112 214.112 0 0 0-7.584 4.992l0.672-0.448-7.968 5.472a170.56 170.56 0 0 1-23.424 14.048l-1.024 0.448c-9.6 4.48-18.784 7.008-28.128 7.008s-18.528-2.528-28.128-7.008a171.968 171.968 0 0 1-24.96-14.848l0.512 0.352-7.968-5.472a186.656 186.656 0 0 0-5.76-3.872l-1.152-0.704c-20.256-12.704-125.6-84.256-176.128-119.936-57.632-40.704-75.488-71.648-97.952-160.672-4.128-16.352-21.28-82.016-47.232-180.992L75.712 349.76l-1.056-4.128a20.608 20.608 0 0 1 0.512-12.48l-0.032 0.16 26.592-76.192-19.936-49.152a21.024 21.024 0 0 1 4.128-22.336l5.216-5.536a2725.888 2725.888 0 0 1 60-61.952c14.976-15.008 35.104-23.136 58.624-25.888a195.392 195.392 0 0 1 60.48 3.104l-1.28-0.224L346.24 7.104a20.896 20.896 0 0 1 15.776-7.168h300.288c6.048 0 11.776 2.592 15.776 7.168l77.28 88.032a192.736 192.736 0 0 1 60.064-2.784l-0.864-0.064c23.552 2.784 43.648 10.848 58.624 25.888 20.896 21.024 41.696 42.56 62.208 64.352l1.6 1.696c6.944 7.456 8.544 16.16 5.472 23.776z m-42.336 6.368a20.928 20.928 0 0 1 0.416-15.04l-0.064 0.128 17.824-44-9.632-10.144c-15.68-16.448-30.464-31.584-45.376-46.592l0.064 0.064c-7.424-7.424-18.848-12.032-33.76-13.792a155.04 155.04 0 0 0-45.056 2.144l0.992-0.16a164.256 164.256 0 0 0-9.216 1.888l-2.944 0.736a21.056 21.056 0 0 1-21.408-6.4l-0.032-0.032-79.232-90.24h-281.312l-79.232 90.24a21.12 21.12 0 0 1-21.568 6.368l0.16 0.032a141.12 141.12 0 0 0-11.168-2.464l-0.992-0.16a151.2 151.2 0 0 0-28.928-2.688c-5.344 0-10.624 0.256-15.808 0.8l0.64-0.064c-14.88 1.76-26.368 6.368-33.76 13.792a3023.968 3023.968 0 0 0-53.632 55.264l-1.312 1.408 17.824 44a21.28 21.28 0 0 1 0.32 15.04l0.032-0.16-27.04 77.664 2.528 9.6 10.976 41.76 33.312 126.848c-44.096-201.792-27.744-140.8-11.52-79.712L211.2 701.504c20.224 80.128 33.12 102.432 81.408 136.576 49.92 35.296 154.752 106.464 174.208 118.688 2.432 1.536 4.992 3.2 8.192 5.408l7.968 5.472c8.16 5.504 13.568 8.832 18.592 11.168 4.48 2.08 7.968 3.04 10.368 3.04s5.856-0.928 10.368-3.04c5.024-2.336 10.496-5.664 18.592-11.168l7.968-5.472c3.232-2.176 5.76-3.872 8.192-5.408 19.456-12.192 124.288-83.424 174.208-118.688 48.288-34.144 61.184-56.448 81.408-136.576 4.192-16.544 21.28-82.144 47.36-181.376l46.976-178.944z m-156.352-83.328s109.984 133.472 109.984 161.952-13.824 36.064-27.744 50.848l-82.464 87.904c-7.808 8.32-24.032 20.896-14.496 43.616s23.648 51.584 7.968 80.864-42.528 48.864-59.744 45.6-57.6-24.448-72.448-34.08-61.952-48.672-61.952-63.584c0-14.944 48.672-41.696 57.696-47.776s50.016-29.664 50.848-38.88c0.864-9.248 0.512-11.936-11.616-34.816s-33.92-53.344-30.304-73.6 38.784-30.816 63.872-40.32 73.376-27.488 79.456-30.24c6.016-2.816 4.48-5.472-13.824-7.2s-70.144-8.672-93.536-2.08-63.36 16.512-66.56 21.76c-3.232 5.28-6.112 5.472-2.784 23.68s20.448 105.6 22.112 121.12 4.896 25.76-11.776 29.6-44.768 10.464-54.4 10.464-37.728-6.656-54.4-10.464c-16.672-3.84-13.44-14.08-11.776-29.6s18.784-102.912 22.112-121.12 0.48-18.4-2.784-23.68-43.168-15.232-66.56-21.76-75.264 0.384-93.536 2.08c-18.272 1.76-19.84 4.384-13.824 7.2s54.368 20.736 79.456 30.24 60.256 20.064 63.872 40.32-18.176 50.784-30.304 73.6-12.416 25.568-11.616 34.816 41.856 32.8 50.848 38.88c8.992 6.112 57.696 32.864 57.696 47.776s-47.104 53.888-61.952 63.584-55.264 30.88-72.448 34.08c-17.184 3.232-44.064-16.288-59.744-45.6s-1.568-58.144 7.968-80.864-6.688-35.296-14.496-43.616l-82.464-87.904c-13.92-14.816-27.744-22.368-27.744-50.848s109.984-161.952 109.984-161.952 92.8 17.792 105.312 17.792 39.648-10.464 64.64-18.848 41.728-8.448 41.728-8.448 16.672 0.032 41.728 8.448 52.128 18.848 64.64 18.848 105.312-17.792 105.312-17.792z m-82.432 510.464c6.816 4.256 2.656 12.32-3.552 16.736s-89.504 69.152-97.632 76.32-19.968 18.976-28.064 18.976-19.968-11.808-28.064-18.976-91.424-71.936-97.632-76.32-10.368-12.448-3.552-16.736 28.128-15.072 57.504-30.336 66.016-28.256 71.712-28.256 42.336 12.96 71.712 28.256 50.688 26.08 57.504 30.336z" fill="#FB542B" p-id="3628"></path></svg>