<?xml version="1.0" standalone="no"?><!DOCTYPE svg PUBLIC "-//W3C//DTD SVG 1.1//EN" "http://www.w3.org/Graphics/SVG/1.1/DTD/svg11.dtd"><svg t="1726348027592" class="icon" viewBox="0 0 1024 1024" version="1.1" xmlns="http://www.w3.org/2000/svg" p-id="7167" xmlns:xlink="http://www.w3.org/1999/xlink" width="200" height="200"><path d="M512 0c282.76736 0 512 229.23264 512 512S794.76736 1024 512 1024 0 794.76736 0 512 229.23264 0 512 0z m84.70528 560.37376a15.872 15.872 0 0 0-15.6672 13.45536c-15.5648 101.1712-49.5616 175.12448-101.49888 222.47424l-5.26336 4.62848a15.83104 15.83104 0 0 0-6.00064 13.0048l0.22528 2.1504a15.85152 15.85152 0 0 0 8.56064 11.4688l1.98656 0.8192c4.8128 1.6384 10.07616 0.83968 14.17216-2.00704l1.65888-1.35168c59.45344-50.95424 97.91488-129.80224 115.85536-236.01152l1.65888-10.36288a15.85152 15.85152 0 0 0-11.14112-17.6128l-2.10944-0.45056-1.2288-0.14336-1.2288-0.06144z m37.39648-174.42816a15.85152 15.85152 0 0 0-12.75904 25.2928l1.55648 1.78176c20.48 20.48 31.5392 51.48672 32.64512 93.75744l0.08192 7.168c0 122.96192-24.7808 214.6304-78.60224 282.74688l-4.95616 6.144c-5.07904 6.12352-4.79232 14.9504 0.34816 20.6848l1.67936 1.6384c6.144 5.12 14.9504 4.8128 20.72576-0.34816l1.6384-1.67936c60.88704-73.07264 89.2928-170.12736 90.8288-298.14784l0.06144-11.0592c0-51.26144-12.57472-91.3408-38.27712-119.3984l-3.76832-3.93216a15.68768 15.68768 0 0 0-8.76544-4.46464l-2.43712-0.2048z m-112.14848 99.67616a15.85152 15.85152 0 0 0-15.85152 15.85152c0 117.00224-37.60128 210.432-112.96768 281.3952l-6.36928 5.87776a15.872 15.872 0 0 0-2.37568 20.35712l1.4336 1.82272a15.872 15.872 0 0 0 20.29568 2.7648l1.86368-1.39264c84.29568-75.8784 127.5904-176.5376 129.76128-300.9536l0.08192-9.87136a15.85152 15.85152 0 0 0-13.7216-15.70816l-2.1504-0.14336z m0-74.752c-59.1872 0-91.25888 32.07168-90.60352 90.78784-7.74144 115.48672-48.9472 196.7104-123.43296 244.224l-5.9392 3.6864a15.85152 15.85152 0 0 0-7.9872 11.79648l-0.12288 2.12992a15.85152 15.85152 0 0 0 6.49216 12.67712l1.82272 1.14688a15.79008 15.79008 0 0 0 13.94688 0.57344l2.17088-1.16736c85.85216-51.48672 133.8368-140.47232 144.05632-265.216l0.65536-8.99072c-0.4096-40.71424 16.13824-58.6752 54.72256-59.86304l4.21888-0.06144c40.18176 0 58.12224 16.54784 58.90048 54.55872v4.15744a15.85152 15.85152 0 0 0 13.55776 15.85152l2.1504 0.18432a15.83104 15.83104 0 0 0 15.85152-13.5168l0.16384-2.17088c0.63488-57.0368-29.63456-88.92416-85.6064-90.70592l-5.0176-0.08192z m224.27648 74.752a15.85152 15.85152 0 0 0-15.85152 15.85152c0 2.37568 0.04096 4.99712 0.12288 8.192l0.1024 3.39968 0.47104 13.88544c2.3552 67.74784-1.1264 117.43232-17.55136 169.5744l-2.72384 8.27392c-3.39968 10.09664-7.29088 19.88608-11.63264 29.3888l-4.48512 9.4208a15.89248 15.89248 0 0 0-0.3072 13.78304l1.16736 2.10944c2.74432 4.15744 7.24992 6.7584 12.14464 7.10656h2.10944a15.81056 15.81056 0 0 0 12.1856-7.00416l1.06496-1.8432c5.12-10.28096 9.74848-20.8896 13.86496-31.76448l3.91168-10.99776c19.31264-56.77056 24.064-108.81024 22.28224-178.05312l-0.32768-11.0592-0.47104-13.80352a405.85216 405.85216 0 0 1-0.2048-8.3968v-2.21184a15.85152 15.85152 0 0 0-13.7216-15.70816l-2.1504-0.14336z m-411.2384 112.3328c-6.5536 0-12.6976 4.11648-14.97088 10.6496-6.88128 20.6848-20.41856 41.75872-40.77568 63.20128l-5.24288 5.36576a15.872 15.872 0 0 0-1.536 20.64384l1.536 1.78176c5.65248 5.632 14.45888 6.144 20.6848 1.536l1.76128-1.536c24.63744-24.65792 41.90208-49.64352 51.56864-75.07968l2.08896-5.87776a15.85152 15.85152 0 0 0-8.0896-19.0464l-1.98656-0.8192a16.30208 16.30208 0 0 0-3.35872-0.7168l-1.67936-0.1024z m99.57376-318.93504a15.83104 15.83104 0 0 0-6.18496 1.2288 240.16896 240.16896 0 0 0-146.47296 214.8352l-0.08192 6.38976c-4.7104 50.50368-18.67776 87.28576-41.12384 109.568l-3.42016 3.21536a15.872 15.872 0 0 0-2.33472 20.2752l1.41312 1.8432a15.85152 15.85152 0 0 0 20.19328 2.8672l1.8432-1.35168c29.92128-26.74688 47.77984-69.26336 54.272-126.976l0.79872-7.9872c0.08192-83.84512 48.37376-157.3888 121.71264-191.01696l5.55008-2.4576a15.83104 15.83104 0 0 0 9.13408-18.7392l-0.7168-2.048a15.81056 15.81056 0 0 0-12.288-9.48224l-2.29376-0.16384zM772.096 326.77888a15.89248 15.89248 0 0 0-14.66368 21.87264l1.024 2.048c30.16704 47.75936 47.2064 103.6288 48.8448 162.28352l0.12288 9.27744c0 25.76384-2.9696 51.11808-8.76544 75.61216l-2.6624 10.4448a15.85152 15.85152 0 0 0 9.09312 18.75968l2.048 0.7168a15.872 15.872 0 0 0 18.7392-9.09312l0.7168-2.048a358.4 358.4 0 0 0 12.36992-83.6608l0.14336-10.73152c0-64.96256-17.22368-127.24224-49.152-180.87936l-4.66944-7.59808a15.89248 15.89248 0 0 0-11.01824-6.8608l-2.17088-0.14336z m-242.13504 6.84032c-42.1888 0-81.55136 14.5408-117.5552 43.33568-29.06112 23.2448-43.008 49.27488-49.84832 84.7872l-1.06496 5.98016c-0.98304 5.89824-1.6384 10.4448-2.78528 19.80416l-0.45056 3.74784c-3.19488 26.17344-5.61152 38.2976-11.22304 50.3808l-1.2288 2.58048a15.83104 15.83104 0 0 0-0.3072 13.80352l1.16736 2.10944c2.74432 4.15744 7.22944 6.7584 12.14464 7.08608h2.10944a15.872 15.872 0 0 0 12.20608-6.98368l1.06496-1.8432c8.04864-16.1792 11.264-29.77792 14.78656-57.18016l0.75776-6.08256c1.2288-10.26048 1.86368-15.07328 2.70336-20.23424l0.32768-1.96608c4.93568-29.63456 14.37696-49.68448 35.34848-67.85024l4.096-3.3792c36.29056-29.04064 75.44832-40.61184 118.35392-35.0208l6.144 0.9216a15.89248 15.89248 0 0 0 17.77664-10.93632l0.512-2.08896a15.85152 15.85152 0 0 0-10.93632-17.77664l-2.10944-0.49152a194.56 194.56 0 0 0-24.08448-2.53952l-7.90528-0.16384z m-265.76896 5.9392c-5.5296 0-10.89536 2.88768-13.824 8.04864a352.4608 352.4608 0 0 0-45.44512 164.82304L204.8 522.24c0 6.02112 0.14336 12.02176 0.45056 18.0224l0.55296 9.0112a15.83104 15.83104 0 0 0 14.82752 14.6432h2.17088a15.85152 15.85152 0 0 0 14.66368-14.82752l-0.02048-2.1504c-0.4096-5.48864-0.69632-10.97728-0.8192-16.46592l-0.1024-8.23296c0-53.73952 12.92288-105.41056 37.0688-151.01952l4.38272-7.9872a15.872 15.872 0 0 0-4.17792-20.43904l-1.80224-1.18784a15.89248 15.89248 0 0 0-5.81632-1.92512l-1.98656-0.12288z m257.88416-78.2336c-4.44416 0-8.94976 0.14336-13.43488 0.36864a15.872 15.872 0 0 0-14.9504 14.56128l-0.04096 2.1504c0.45056 8.04864 6.7584 14.336 14.5408 14.9504l2.17088 0.04096a208.44544 208.44544 0 0 1 206.2336 133.38624l2.048 5.5296c2.6624 7.5776 10.48576 11.85792 18.1248 10.26048l2.08896-0.57344c7.5776-2.6624 11.85792-10.48576 10.28096-18.14528l-0.59392-2.06848a240.16896 240.16896 0 0 0-220.16-160.3584l-6.30784-0.08192zM521.95328 184.32c-87.32672 0-168.91904 37.76512-228.29056 103.3216a15.872 15.872 0 0 0-0.49152 20.70528l1.6384 1.72032a15.85152 15.85152 0 0 0 20.6848 0.49152l1.67936-1.6384c51.75296-57.1392 121.91744-90.68544 197.2224-92.7744l7.5776-0.12288c70.43072 0 136.86784 27.50464 188.6208 76.3904l5.46816 5.3248c3.4816 3.60448 8.43776 5.28384 13.35296 4.68992l2.08896-0.4096a15.89248 15.89248 0 0 0 10.62912-9.3184l0.67584-2.02752a15.89248 15.89248 0 0 0-2.92864-13.84448l-1.4336-1.57696h-0.02048c-56.34048-56.07424-129.86368-88.69888-208.32256-90.8288L521.95328 184.32z" fill="#32C5FF" p-id="7168"></path></svg>