<?xml version="1.0" standalone="no"?><!DOCTYPE svg PUBLIC "-//W3C//DTD SVG 1.1//EN" "http://www.w3.org/Graphics/SVG/1.1/DTD/svg11.dtd"><svg t="1726348152431" class="icon" viewBox="0 0 1024 1024" version="1.1" xmlns="http://www.w3.org/2000/svg" p-id="10164" xmlns:xlink="http://www.w3.org/1999/xlink" width="200" height="200"><path d="M520.704 181.8624m-99.6864 0a99.6864 99.6864 0 1 0 199.3728 0 99.6864 99.6864 0 1 0-199.3728 0Z" fill="#54D2FF" p-id="10165"></path><path d="M290.048 464.5888m-99.6864 0a99.6864 99.6864 0 1 0 199.3728 0 99.6864 99.6864 0 1 0-199.3728 0Z" fill="#54D2FF" p-id="10166"></path><path d="M350.6176 587.3152H227.8912c-82.8928 0-150.0672 67.1744-150.0672 150.0672v203.776h83.6608V727.04h37.9904v214.1184h175.6672V727.04h37.9904v214.1184h87.552v-203.776c0-82.8928-67.1744-150.0672-150.0672-150.0672z" fill="#57ADFA" p-id="10167"></path><path d="M500.6848 860.6208v-123.2896c0-82.8928-67.1744-150.0672-150.0672-150.0672H227.8912c-82.8928 0-150.0672 67.1744-150.0672 150.0672v178.0224a661.504 661.504 0 0 0 83.6608 11.1616V727.04h37.9904v201.1136c2.9696 0.0512 5.888 0.1024 8.8576 0.1024 57.6 0 113.5104-7.3216 166.8608-21.1456V727.04h37.9904v169.0112c30.1568-9.7792 59.392-21.6064 87.5008-35.4304z" fill="#55C2FD" p-id="10168"></path><path d="M227.8912 587.3152c-82.8928 0-150.0672 67.1744-150.0672 150.0672V752.64c28.416-1.6384 56.32-5.0688 83.6608-10.24v-15.36h37.9904v7.1168c88.7296-22.272 170.24-62.7712 240.384-117.1968-24.9856-18.5344-55.7568-29.6448-89.2416-29.6448H227.8912z" fill="#54D2FF" p-id="10169"></path><path d="M751.36 464.5888m-99.6864 0a99.6864 99.6864 0 1 0 199.3728 0 99.6864 99.6864 0 1 0-199.3728 0Z" fill="#57ADFA" p-id="10170"></path><path d="M751.36 364.9024c-55.04 0-99.6864 44.6464-99.6864 99.6864s44.6464 99.6864 99.6864 99.6864c22.3232 0 42.8544-7.424 59.4944-19.8144 15.2064-32.5632 27.8528-66.56 37.6832-101.7856-9.984-44.4928-49.664-77.7728-97.1776-77.7728z" fill="#55C2FD" p-id="10171"></path><path d="M811.9296 587.3152h-122.7264c-82.8928 0-150.0672 67.1744-150.0672 150.0672v203.776h83.6608V727.04h37.9904v214.1184h175.6672V727.04h37.9904v214.1184h87.552v-203.776c0-82.8928-67.2256-150.0672-150.0672-150.0672z" fill="#58A2F8" p-id="10172"></path><path d="M874.4448 853.0432c33.7408-39.3216 62.976-82.6368 86.8352-129.1264-6.8096-76.544-71.0656-136.6016-149.4016-136.6016H689.152c-82.8928 0-150.0672 67.1744-150.0672 150.0672v203.776h83.6608V727.04h37.9904v214.1184h122.2144c18.688-14.848 36.5056-30.6688 53.504-47.4112V727.04h37.9904v126.0032z" fill="#57ADFA" p-id="10173"></path><path d="M788.8896 587.3152H689.152c-82.8928 0-150.0672 67.1744-150.0672 150.0672v102.8608c29.3888-16.896 57.344-35.9936 83.6608-57.0368V727.04h37.9904v23.3984c50.7904-47.2064 94.1056-102.1952 128.1536-163.1232zM352.9216 344.1664S427.6224 361.1648 426.7008 481.28v78.7456s59.1872 29.0304 93.952 83.3536c24.9344-56.2176 88.832-82.7392 88.832-82.7392V476.672s-3.072-85.1968 72.5504-132.4544c-16.9984-26.2656-53.4016-41.984-94.7712-41.984H448.3072s-61.696 0.8704-95.3856 41.9328z" fill="#55C2FD" p-id="10174"></path><path d="M655.2064 319.1296c-18.432-10.9056-42.24-16.9984-67.9424-16.9984H448.3072s-61.7472 0.9216-95.3856 41.984c0 0 74.7008 16.9984 73.7792 137.1136v78.7456s21.0432 10.3936 45.3632 30.208c82.176-72.6016 145.8176-165.5808 183.1424-271.0528z" fill="#54D2FF" p-id="10175"></path></svg>